<svg xmlns="http://www.w3.org/2000/svg" xmlns:xlink="http://www.w3.org/1999/xlink" width="250" zoomAndPan="magnify" viewBox="0 0 187.5 74.999997" height="100" preserveAspectRatio="xMidYMid meet" version="1.0"><defs><g/><clipPath id="9cbc093ae9"><path d="M 13 0.101562 L 19 0.101562 L 19 15 L 13 15 Z M 13 0.101562 " clip-rule="nonzero"/></clipPath><clipPath id="a73aa681d2"><path d="M 25 0.101562 L 31 0.101562 L 31 15 L 25 15 Z M 25 0.101562 " clip-rule="nonzero"/></clipPath><clipPath id="d5d3ba6ecc"><path d="M 29 33 L 34 33 L 34 47.222656 L 29 47.222656 Z M 29 33 " clip-rule="nonzero"/></clipPath><clipPath id="e2212a3349"><path d="M 17 33 L 23 33 L 23 47.222656 L 17 47.222656 Z M 17 33 " clip-rule="nonzero"/></clipPath><clipPath id="4685340fcd"><path d="M 33 13 L 47.871094 13 L 47.871094 19 L 33 19 Z M 33 13 " clip-rule="nonzero"/></clipPath><clipPath id="56ac56678a"><path d="M 33 25 L 47.871094 25 L 47.871094 31 L 33 31 Z M 33 25 " clip-rule="nonzero"/></clipPath></defs><path fill="#ffffff" d="M 34.003906 34.410156 L 13.597656 34.410156 C 13.496094 34.410156 13.410156 34.375 13.335938 34.300781 C 13.265625 34.230469 13.230469 34.144531 13.230469 34.039062 L 13.230469 13.632812 C 13.230469 13.53125 13.265625 13.445312 13.335938 13.371094 C 13.410156 13.300781 13.496094 13.265625 13.597656 13.265625 L 34.003906 13.265625 C 34.105469 13.265625 34.195312 13.300781 34.265625 13.371094 C 34.339844 13.445312 34.375 13.53125 34.375 13.632812 L 34.375 34.039062 C 34.375 34.144531 34.339844 34.230469 34.265625 34.300781 C 34.195312 34.375 34.105469 34.410156 34.003906 34.410156 Z M 13.96875 33.671875 L 33.632812 33.671875 L 33.632812 14.003906 L 13.96875 14.003906 Z M 13.96875 33.671875 " fill-opacity="1" fill-rule="nonzero"/><path fill="#ffffff" d="M 26.402344 26.808594 L 21.199219 26.808594 C 21.097656 26.808594 21.011719 26.769531 20.941406 26.699219 C 20.867188 26.625 20.832031 26.539062 20.832031 26.4375 L 20.832031 21.238281 C 20.832031 21.136719 20.867188 21.046875 20.941406 20.976562 C 21.011719 20.902344 21.097656 20.867188 21.199219 20.867188 L 26.402344 20.867188 C 26.503906 20.867188 26.589844 20.902344 26.664062 20.976562 C 26.734375 21.046875 26.769531 21.132812 26.769531 21.238281 L 26.769531 26.4375 C 26.769531 26.539062 26.734375 26.625 26.664062 26.699219 C 26.589844 26.769531 26.503906 26.808594 26.402344 26.808594 Z M 21.570312 26.066406 L 26.03125 26.066406 L 26.03125 21.605469 L 21.570312 21.605469 Z M 21.570312 26.066406 " fill-opacity="1" fill-rule="nonzero"/><path fill="#ffffff" d="M 23.796875 24.488281 C 23.695312 24.488281 23.605469 24.453125 23.535156 24.382812 C 23.460938 24.308594 23.425781 24.222656 23.425781 24.121094 L 23.425781 23.554688 C 23.425781 23.453125 23.460938 23.367188 23.535156 23.292969 C 23.605469 23.222656 23.695312 23.183594 23.796875 23.183594 C 23.898438 23.183594 23.984375 23.222656 24.058594 23.292969 C 24.128906 23.367188 24.164062 23.453125 24.164062 23.554688 L 24.164062 24.121094 C 24.164062 24.222656 24.128906 24.308594 24.058594 24.382812 C 23.984375 24.453125 23.898438 24.488281 23.796875 24.488281 Z M 23.796875 24.488281 " fill-opacity="1" fill-rule="nonzero"/><path fill="#ffffff" d="M 15.320312 16.894531 C 15.21875 16.894531 15.132812 16.859375 15.058594 16.789062 C 14.988281 16.71875 14.949219 16.632812 14.949219 16.53125 L 14.949219 15.484375 C 14.949219 15.382812 14.984375 15.296875 15.058594 15.222656 C 15.128906 15.152344 15.214844 15.113281 15.320312 15.113281 C 15.421875 15.113281 15.507812 15.152344 15.578125 15.222656 C 15.652344 15.296875 15.6875 15.382812 15.6875 15.484375 L 15.6875 16.53125 C 15.6875 16.632812 15.648438 16.71875 15.578125 16.789062 C 15.503906 16.859375 15.417969 16.894531 15.320312 16.894531 Z M 15.320312 16.894531 " fill-opacity="1" fill-rule="nonzero"/><path fill="#ffffff" d="M 17.015625 16.894531 C 16.914062 16.894531 16.824219 16.859375 16.753906 16.789062 C 16.679688 16.714844 16.644531 16.628906 16.644531 16.527344 L 16.644531 15.484375 C 16.644531 15.382812 16.679688 15.296875 16.753906 15.222656 C 16.824219 15.152344 16.914062 15.113281 17.015625 15.113281 C 17.117188 15.113281 17.203125 15.152344 17.277344 15.222656 C 17.347656 15.296875 17.386719 15.382812 17.386719 15.484375 L 17.386719 16.53125 C 17.382812 16.632812 17.347656 16.71875 17.273438 16.789062 C 17.203125 16.859375 17.117188 16.894531 17.015625 16.894531 Z M 17.015625 16.894531 " fill-opacity="1" fill-rule="nonzero"/><path fill="#ffffff" d="M 18.710938 16.894531 C 18.609375 16.894531 18.523438 16.859375 18.449219 16.789062 C 18.378906 16.714844 18.34375 16.628906 18.34375 16.527344 L 18.34375 15.484375 C 18.34375 15.382812 18.378906 15.296875 18.449219 15.222656 C 18.523438 15.152344 18.609375 15.113281 18.710938 15.113281 C 18.8125 15.113281 18.902344 15.152344 18.972656 15.222656 C 19.046875 15.296875 19.082031 15.382812 19.082031 15.484375 L 19.082031 16.53125 C 19.078125 16.632812 19.042969 16.71875 18.972656 16.789062 C 18.898438 16.859375 18.8125 16.894531 18.710938 16.894531 Z M 18.710938 16.894531 " fill-opacity="1" fill-rule="nonzero"/><path fill="#ffffff" d="M 20.40625 16.894531 C 20.304688 16.894531 20.21875 16.859375 20.144531 16.789062 C 20.074219 16.714844 20.039062 16.628906 20.039062 16.527344 L 20.039062 15.484375 C 20.03125 15.378906 20.066406 15.285156 20.136719 15.207031 C 20.210938 15.128906 20.300781 15.089844 20.40625 15.089844 C 20.515625 15.089844 20.605469 15.128906 20.679688 15.207031 C 20.75 15.285156 20.785156 15.378906 20.777344 15.484375 L 20.777344 16.53125 C 20.773438 16.632812 20.738281 16.71875 20.667969 16.789062 C 20.59375 16.859375 20.507812 16.894531 20.40625 16.894531 Z M 20.40625 16.894531 " fill-opacity="1" fill-rule="nonzero"/><path fill="#ffffff" d="M 22.105469 16.894531 C 22 16.894531 21.914062 16.859375 21.84375 16.789062 C 21.769531 16.714844 21.734375 16.628906 21.734375 16.527344 L 21.734375 15.484375 C 21.734375 15.382812 21.769531 15.296875 21.84375 15.222656 C 21.914062 15.152344 22 15.113281 22.105469 15.113281 C 22.207031 15.113281 22.292969 15.152344 22.367188 15.222656 C 22.4375 15.296875 22.472656 15.382812 22.472656 15.484375 L 22.472656 16.53125 C 22.472656 16.632812 22.433594 16.71875 22.363281 16.789062 C 22.292969 16.859375 22.203125 16.894531 22.105469 16.894531 Z M 22.105469 16.894531 " fill-opacity="1" fill-rule="nonzero"/><path fill="#ffffff" d="M 23.796875 16.894531 C 23.695312 16.894531 23.605469 16.859375 23.535156 16.789062 C 23.460938 16.714844 23.425781 16.628906 23.425781 16.527344 L 23.425781 15.484375 C 23.425781 15.382812 23.460938 15.296875 23.535156 15.222656 C 23.605469 15.152344 23.695312 15.113281 23.796875 15.113281 C 23.898438 15.113281 23.984375 15.152344 24.058594 15.222656 C 24.128906 15.296875 24.164062 15.382812 24.164062 15.484375 L 24.164062 16.53125 C 24.164062 16.632812 24.128906 16.71875 24.054688 16.789062 C 23.984375 16.859375 23.898438 16.894531 23.796875 16.894531 Z M 23.796875 16.894531 " fill-opacity="1" fill-rule="nonzero"/><path fill="#ffffff" d="M 25.496094 16.894531 C 25.394531 16.894531 25.308594 16.859375 25.234375 16.789062 C 25.164062 16.714844 25.128906 16.628906 25.128906 16.527344 L 25.128906 15.484375 C 25.128906 15.382812 25.164062 15.296875 25.234375 15.222656 C 25.308594 15.152344 25.394531 15.113281 25.496094 15.113281 C 25.601562 15.113281 25.6875 15.152344 25.757812 15.222656 C 25.832031 15.296875 25.867188 15.382812 25.867188 15.484375 L 25.867188 16.53125 C 25.867188 16.632812 25.828125 16.71875 25.757812 16.789062 C 25.683594 16.859375 25.597656 16.894531 25.496094 16.894531 Z M 25.496094 16.894531 " fill-opacity="1" fill-rule="nonzero"/><path fill="#ffffff" d="M 27.203125 16.894531 C 27.101562 16.894531 27.011719 16.859375 26.941406 16.789062 C 26.867188 16.714844 26.832031 16.628906 26.832031 16.527344 L 26.832031 15.484375 C 26.832031 15.382812 26.867188 15.296875 26.941406 15.222656 C 27.011719 15.152344 27.101562 15.113281 27.203125 15.113281 C 27.304688 15.113281 27.390625 15.152344 27.464844 15.222656 C 27.535156 15.296875 27.574219 15.382812 27.574219 15.484375 L 27.574219 16.53125 C 27.570312 16.632812 27.535156 16.71875 27.460938 16.789062 C 27.390625 16.859375 27.304688 16.894531 27.203125 16.894531 Z M 27.203125 16.894531 " fill-opacity="1" fill-rule="nonzero"/><path fill="#ffffff" d="M 28.890625 16.894531 C 28.789062 16.894531 28.699219 16.859375 28.628906 16.785156 C 28.558594 16.714844 28.519531 16.628906 28.519531 16.527344 L 28.519531 15.484375 C 28.515625 15.378906 28.546875 15.285156 28.621094 15.207031 C 28.695312 15.128906 28.785156 15.089844 28.890625 15.089844 C 28.996094 15.089844 29.085938 15.128906 29.160156 15.207031 C 29.234375 15.285156 29.265625 15.378906 29.257812 15.484375 L 29.257812 16.53125 C 29.257812 16.632812 29.222656 16.71875 29.148438 16.789062 C 29.078125 16.859375 28.992188 16.894531 28.890625 16.894531 Z M 28.890625 16.894531 " fill-opacity="1" fill-rule="nonzero"/><path fill="#ffffff" d="M 30.585938 16.894531 C 30.484375 16.894531 30.398438 16.859375 30.324219 16.789062 C 30.253906 16.714844 30.21875 16.628906 30.21875 16.527344 L 30.21875 15.484375 C 30.210938 15.378906 30.242188 15.285156 30.316406 15.207031 C 30.390625 15.128906 30.480469 15.089844 30.585938 15.089844 C 30.695312 15.089844 30.785156 15.128906 30.855469 15.207031 C 30.929688 15.285156 30.964844 15.378906 30.957031 15.484375 L 30.957031 16.53125 C 30.953125 16.632812 30.917969 16.71875 30.84375 16.789062 C 30.773438 16.859375 30.6875 16.894531 30.585938 16.894531 Z M 30.585938 16.894531 " fill-opacity="1" fill-rule="nonzero"/><path fill="#ffffff" d="M 32.28125 16.894531 C 32.179688 16.898438 32.09375 16.863281 32.019531 16.792969 C 31.945312 16.722656 31.910156 16.632812 31.90625 16.53125 L 31.90625 15.484375 C 31.90625 15.382812 31.941406 15.296875 32.015625 15.222656 C 32.085938 15.152344 32.175781 15.113281 32.277344 15.113281 C 32.378906 15.113281 32.464844 15.152344 32.539062 15.222656 C 32.609375 15.296875 32.648438 15.382812 32.648438 15.484375 L 32.648438 16.53125 C 32.644531 16.632812 32.609375 16.71875 32.539062 16.789062 C 32.46875 16.859375 32.382812 16.894531 32.28125 16.894531 Z M 32.28125 16.894531 " fill-opacity="1" fill-rule="nonzero"/><path fill="#ffffff" d="M 15.320312 20.027344 C 15.214844 20.027344 15.128906 19.992188 15.058594 19.921875 C 14.984375 19.847656 14.949219 19.761719 14.949219 19.660156 L 14.949219 18.617188 C 14.949219 18.515625 14.984375 18.425781 15.058594 18.355469 C 15.128906 18.285156 15.214844 18.246094 15.320312 18.246094 C 15.421875 18.246094 15.507812 18.285156 15.578125 18.355469 C 15.652344 18.425781 15.6875 18.515625 15.6875 18.617188 L 15.6875 19.660156 C 15.6875 19.761719 15.652344 19.847656 15.578125 19.921875 C 15.507812 19.992188 15.421875 20.027344 15.320312 20.027344 Z M 15.320312 20.027344 " fill-opacity="1" fill-rule="nonzero"/><path fill="#ffffff" d="M 17.015625 20.027344 C 16.914062 20.027344 16.824219 19.992188 16.753906 19.921875 C 16.679688 19.847656 16.644531 19.761719 16.644531 19.660156 L 16.644531 18.617188 C 16.644531 18.515625 16.679688 18.425781 16.753906 18.355469 C 16.824219 18.285156 16.914062 18.246094 17.015625 18.246094 C 17.117188 18.246094 17.203125 18.285156 17.277344 18.355469 C 17.347656 18.425781 17.386719 18.515625 17.386719 18.617188 L 17.386719 19.660156 C 17.386719 19.761719 17.347656 19.847656 17.277344 19.921875 C 17.203125 19.992188 17.117188 20.027344 17.015625 20.027344 Z M 17.015625 20.027344 " fill-opacity="1" fill-rule="nonzero"/><path fill="#ffffff" d="M 30.585938 20.027344 C 30.484375 20.027344 30.398438 19.992188 30.324219 19.917969 C 30.253906 19.847656 30.21875 19.761719 30.21875 19.660156 L 30.21875 18.617188 C 30.222656 18.519531 30.261719 18.4375 30.335938 18.371094 C 30.40625 18.304688 30.488281 18.273438 30.585938 18.273438 C 30.683594 18.273438 30.769531 18.304688 30.839844 18.371094 C 30.910156 18.4375 30.949219 18.519531 30.957031 18.617188 L 30.957031 19.660156 C 30.957031 19.761719 30.921875 19.847656 30.847656 19.921875 C 30.777344 19.992188 30.6875 20.027344 30.585938 20.027344 Z M 30.585938 20.027344 " fill-opacity="1" fill-rule="nonzero"/><path fill="#ffffff" d="M 32.28125 20.027344 C 32.179688 20.027344 32.09375 19.992188 32.023438 19.921875 C 31.949219 19.847656 31.914062 19.761719 31.914062 19.660156 L 31.914062 18.617188 C 31.914062 18.515625 31.949219 18.425781 32.023438 18.355469 C 32.09375 18.285156 32.179688 18.246094 32.28125 18.246094 C 32.386719 18.246094 32.472656 18.285156 32.542969 18.355469 C 32.617188 18.425781 32.652344 18.515625 32.652344 18.617188 L 32.652344 19.660156 C 32.652344 19.761719 32.617188 19.847656 32.542969 19.921875 C 32.472656 19.992188 32.386719 20.027344 32.28125 20.027344 Z M 32.28125 20.027344 " fill-opacity="1" fill-rule="nonzero"/><path fill="#ffffff" d="M 15.320312 23.160156 C 15.214844 23.160156 15.128906 23.125 15.058594 23.050781 C 14.984375 22.980469 14.949219 22.894531 14.949219 22.789062 L 14.949219 21.75 C 14.949219 21.648438 14.984375 21.5625 15.058594 21.488281 C 15.128906 21.417969 15.214844 21.382812 15.320312 21.382812 C 15.421875 21.382812 15.507812 21.417969 15.578125 21.488281 C 15.652344 21.5625 15.6875 21.648438 15.6875 21.75 L 15.6875 22.789062 C 15.6875 22.894531 15.652344 22.980469 15.578125 23.050781 C 15.507812 23.125 15.421875 23.160156 15.320312 23.160156 Z M 15.320312 23.160156 " fill-opacity="1" fill-rule="nonzero"/><path fill="#ffffff" d="M 17.015625 23.160156 C 16.914062 23.160156 16.824219 23.125 16.753906 23.050781 C 16.679688 22.980469 16.644531 22.894531 16.644531 22.789062 L 16.644531 21.75 C 16.644531 21.648438 16.679688 21.5625 16.753906 21.488281 C 16.824219 21.417969 16.914062 21.382812 17.015625 21.382812 C 17.117188 21.382812 17.203125 21.417969 17.277344 21.488281 C 17.347656 21.5625 17.386719 21.648438 17.386719 21.75 L 17.386719 22.789062 C 17.386719 22.894531 17.347656 22.980469 17.277344 23.050781 C 17.203125 23.125 17.117188 23.160156 17.015625 23.160156 Z M 17.015625 23.160156 " fill-opacity="1" fill-rule="nonzero"/><path fill="#ffffff" d="M 30.585938 23.160156 C 30.484375 23.160156 30.398438 23.125 30.324219 23.050781 C 30.253906 22.980469 30.21875 22.894531 30.21875 22.789062 L 30.21875 21.75 C 30.210938 21.644531 30.242188 21.550781 30.316406 21.472656 C 30.390625 21.394531 30.480469 21.355469 30.585938 21.355469 C 30.695312 21.355469 30.785156 21.394531 30.855469 21.472656 C 30.929688 21.550781 30.964844 21.644531 30.957031 21.75 L 30.957031 22.789062 C 30.957031 22.894531 30.921875 22.980469 30.847656 23.050781 C 30.777344 23.125 30.6875 23.160156 30.585938 23.160156 Z M 30.585938 23.160156 " fill-opacity="1" fill-rule="nonzero"/><path fill="#ffffff" d="M 32.28125 23.160156 C 32.179688 23.160156 32.09375 23.125 32.023438 23.050781 C 31.949219 22.980469 31.914062 22.894531 31.914062 22.789062 L 31.914062 21.75 C 31.914062 21.648438 31.949219 21.5625 32.023438 21.488281 C 32.09375 21.417969 32.179688 21.382812 32.28125 21.382812 C 32.386719 21.382812 32.472656 21.417969 32.542969 21.488281 C 32.617188 21.5625 32.652344 21.648438 32.652344 21.75 L 32.652344 22.789062 C 32.652344 22.894531 32.617188 22.980469 32.542969 23.050781 C 32.472656 23.125 32.386719 23.160156 32.28125 23.160156 Z M 32.28125 23.160156 " fill-opacity="1" fill-rule="nonzero"/><path fill="#ffffff" d="M 15.320312 26.292969 C 15.214844 26.292969 15.128906 26.257812 15.058594 26.183594 C 14.984375 26.113281 14.949219 26.027344 14.949219 25.921875 L 14.949219 24.882812 C 14.949219 24.78125 14.984375 24.695312 15.058594 24.621094 C 15.128906 24.550781 15.214844 24.511719 15.320312 24.511719 C 15.421875 24.511719 15.507812 24.550781 15.578125 24.621094 C 15.652344 24.695312 15.6875 24.78125 15.6875 24.882812 L 15.6875 25.921875 C 15.6875 26.027344 15.652344 26.113281 15.578125 26.183594 C 15.507812 26.257812 15.421875 26.292969 15.320312 26.292969 Z M 15.320312 26.292969 " fill-opacity="1" fill-rule="nonzero"/><path fill="#ffffff" d="M 17.015625 26.292969 C 16.914062 26.292969 16.824219 26.257812 16.753906 26.183594 C 16.679688 26.113281 16.644531 26.027344 16.644531 25.921875 L 16.644531 24.882812 C 16.644531 24.78125 16.679688 24.695312 16.753906 24.621094 C 16.824219 24.550781 16.914062 24.511719 17.015625 24.511719 C 17.117188 24.511719 17.203125 24.550781 17.277344 24.621094 C 17.347656 24.695312 17.386719 24.78125 17.386719 24.882812 L 17.386719 25.921875 C 17.386719 26.027344 17.347656 26.113281 17.277344 26.183594 C 17.203125 26.257812 17.117188 26.292969 17.015625 26.292969 Z M 17.015625 26.292969 " fill-opacity="1" fill-rule="nonzero"/><path fill="#ffffff" d="M 30.585938 26.292969 C 30.484375 26.292969 30.398438 26.257812 30.324219 26.183594 C 30.253906 26.113281 30.21875 26.023438 30.21875 25.921875 L 30.21875 24.882812 C 30.210938 24.777344 30.242188 24.683594 30.316406 24.605469 C 30.390625 24.527344 30.480469 24.488281 30.585938 24.488281 C 30.695312 24.488281 30.785156 24.527344 30.855469 24.605469 C 30.929688 24.683594 30.964844 24.777344 30.957031 24.882812 L 30.957031 25.921875 C 30.957031 26.027344 30.921875 26.113281 30.847656 26.183594 C 30.777344 26.257812 30.6875 26.292969 30.585938 26.292969 Z M 30.585938 26.292969 " fill-opacity="1" fill-rule="nonzero"/><path fill="#ffffff" d="M 32.28125 26.292969 C 32.179688 26.292969 32.09375 26.257812 32.023438 26.183594 C 31.949219 26.113281 31.914062 26.027344 31.914062 25.921875 L 31.914062 24.882812 C 31.914062 24.78125 31.949219 24.695312 32.023438 24.621094 C 32.09375 24.550781 32.179688 24.511719 32.28125 24.511719 C 32.386719 24.511719 32.472656 24.550781 32.542969 24.621094 C 32.617188 24.695312 32.652344 24.78125 32.652344 24.882812 L 32.652344 25.921875 C 32.652344 26.027344 32.617188 26.113281 32.542969 26.183594 C 32.472656 26.257812 32.386719 26.292969 32.28125 26.292969 Z M 32.28125 26.292969 " fill-opacity="1" fill-rule="nonzero"/><path fill="#ffffff" d="M 15.320312 29.425781 C 15.214844 29.425781 15.128906 29.390625 15.058594 29.316406 C 14.984375 29.246094 14.949219 29.160156 14.949219 29.058594 L 14.949219 28.015625 C 14.949219 27.914062 14.984375 27.828125 15.058594 27.753906 C 15.128906 27.683594 15.214844 27.644531 15.320312 27.644531 C 15.421875 27.644531 15.507812 27.683594 15.578125 27.753906 C 15.652344 27.828125 15.6875 27.914062 15.6875 28.015625 L 15.6875 29.058594 C 15.6875 29.160156 15.652344 29.246094 15.578125 29.316406 C 15.507812 29.390625 15.421875 29.425781 15.320312 29.425781 Z M 15.320312 29.425781 " fill-opacity="1" fill-rule="nonzero"/><path fill="#ffffff" d="M 17.015625 29.425781 C 16.914062 29.425781 16.828125 29.390625 16.753906 29.316406 C 16.683594 29.246094 16.644531 29.160156 16.644531 29.058594 L 16.644531 28.015625 C 16.644531 27.914062 16.679688 27.828125 16.753906 27.753906 C 16.824219 27.683594 16.914062 27.644531 17.015625 27.644531 C 17.117188 27.644531 17.203125 27.683594 17.277344 27.753906 C 17.347656 27.828125 17.386719 27.914062 17.386719 28.015625 L 17.386719 29.058594 C 17.382812 29.160156 17.347656 29.246094 17.277344 29.316406 C 17.203125 29.390625 17.117188 29.425781 17.015625 29.425781 Z M 17.015625 29.425781 " fill-opacity="1" fill-rule="nonzero"/><path fill="#ffffff" d="M 30.585938 29.425781 C 30.484375 29.425781 30.398438 29.390625 30.324219 29.316406 C 30.253906 29.246094 30.21875 29.160156 30.21875 29.058594 L 30.21875 28.015625 C 30.210938 27.910156 30.242188 27.816406 30.316406 27.738281 C 30.390625 27.660156 30.480469 27.621094 30.585938 27.621094 C 30.695312 27.621094 30.785156 27.660156 30.855469 27.738281 C 30.929688 27.816406 30.964844 27.910156 30.957031 28.015625 L 30.957031 29.058594 C 30.957031 29.160156 30.917969 29.246094 30.847656 29.316406 C 30.773438 29.390625 30.6875 29.425781 30.585938 29.425781 Z M 30.585938 29.425781 " fill-opacity="1" fill-rule="nonzero"/><path fill="#ffffff" d="M 32.28125 29.425781 C 32.179688 29.425781 32.09375 29.390625 32.023438 29.316406 C 31.949219 29.246094 31.914062 29.160156 31.914062 29.058594 L 31.914062 28.015625 C 31.914062 27.914062 31.949219 27.828125 32.023438 27.753906 C 32.09375 27.683594 32.179688 27.644531 32.28125 27.644531 C 32.386719 27.644531 32.472656 27.683594 32.542969 27.753906 C 32.617188 27.828125 32.652344 27.914062 32.652344 28.015625 L 32.652344 29.058594 C 32.652344 29.160156 32.617188 29.246094 32.542969 29.316406 C 32.472656 29.390625 32.386719 29.425781 32.28125 29.425781 Z M 32.28125 29.425781 " fill-opacity="1" fill-rule="nonzero"/><path fill="#ffffff" d="M 15.320312 32.558594 C 15.214844 32.558594 15.128906 32.523438 15.058594 32.453125 C 14.984375 32.378906 14.949219 32.292969 14.949219 32.191406 L 14.949219 31.148438 C 14.949219 31.046875 14.984375 30.960938 15.058594 30.886719 C 15.128906 30.816406 15.214844 30.777344 15.320312 30.777344 C 15.421875 30.777344 15.507812 30.816406 15.578125 30.886719 C 15.652344 30.960938 15.6875 31.046875 15.6875 31.148438 L 15.6875 32.191406 C 15.6875 32.292969 15.652344 32.378906 15.578125 32.453125 C 15.507812 32.523438 15.421875 32.558594 15.320312 32.558594 Z M 15.320312 32.558594 " fill-opacity="1" fill-rule="nonzero"/><path fill="#ffffff" d="M 17.015625 32.558594 C 16.914062 32.558594 16.824219 32.523438 16.753906 32.453125 C 16.679688 32.378906 16.644531 32.292969 16.644531 32.191406 L 16.644531 31.148438 C 16.644531 31.046875 16.679688 30.960938 16.753906 30.886719 C 16.824219 30.816406 16.914062 30.777344 17.015625 30.777344 C 17.117188 30.777344 17.203125 30.816406 17.277344 30.886719 C 17.347656 30.960938 17.386719 31.046875 17.386719 31.148438 L 17.386719 32.191406 C 17.386719 32.292969 17.347656 32.378906 17.277344 32.453125 C 17.203125 32.523438 17.117188 32.558594 17.015625 32.558594 Z M 17.015625 32.558594 " fill-opacity="1" fill-rule="nonzero"/><path fill="#ffffff" d="M 18.710938 32.558594 C 18.609375 32.558594 18.523438 32.523438 18.449219 32.453125 C 18.378906 32.378906 18.34375 32.292969 18.34375 32.191406 L 18.34375 31.148438 C 18.34375 31.046875 18.378906 30.960938 18.449219 30.886719 C 18.523438 30.816406 18.609375 30.777344 18.710938 30.777344 C 18.8125 30.777344 18.902344 30.816406 18.972656 30.886719 C 19.046875 30.960938 19.082031 31.046875 19.082031 31.148438 L 19.082031 32.191406 C 19.082031 32.292969 19.046875 32.378906 18.972656 32.453125 C 18.902344 32.523438 18.8125 32.558594 18.710938 32.558594 Z M 18.710938 32.558594 " fill-opacity="1" fill-rule="nonzero"/><path fill="#ffffff" d="M 20.40625 32.558594 C 20.304688 32.558594 20.21875 32.523438 20.144531 32.453125 C 20.074219 32.378906 20.039062 32.292969 20.039062 32.191406 L 20.039062 31.148438 C 20.03125 31.042969 20.066406 30.949219 20.136719 30.871094 C 20.210938 30.792969 20.300781 30.753906 20.40625 30.753906 C 20.515625 30.753906 20.605469 30.792969 20.679688 30.871094 C 20.75 30.949219 20.785156 31.042969 20.777344 31.148438 L 20.777344 32.191406 C 20.777344 32.292969 20.742188 32.378906 20.667969 32.453125 C 20.597656 32.523438 20.507812 32.558594 20.40625 32.558594 Z M 20.40625 32.558594 " fill-opacity="1" fill-rule="nonzero"/><path fill="#ffffff" d="M 22.105469 32.558594 C 22 32.558594 21.914062 32.523438 21.84375 32.453125 C 21.769531 32.378906 21.734375 32.292969 21.734375 32.191406 L 21.734375 31.148438 C 21.734375 31.046875 21.769531 30.960938 21.84375 30.886719 C 21.914062 30.816406 22 30.777344 22.105469 30.777344 C 22.207031 30.777344 22.292969 30.816406 22.367188 30.886719 C 22.4375 30.960938 22.472656 31.046875 22.472656 31.148438 L 22.472656 32.191406 C 22.472656 32.292969 22.4375 32.378906 22.367188 32.453125 C 22.292969 32.523438 22.207031 32.558594 22.105469 32.558594 Z M 22.105469 32.558594 " fill-opacity="1" fill-rule="nonzero"/><path fill="#ffffff" d="M 23.796875 32.558594 C 23.695312 32.558594 23.605469 32.523438 23.535156 32.453125 C 23.460938 32.378906 23.425781 32.292969 23.425781 32.191406 L 23.425781 31.148438 C 23.425781 31.046875 23.460938 30.960938 23.535156 30.886719 C 23.605469 30.816406 23.695312 30.777344 23.796875 30.777344 C 23.898438 30.777344 23.984375 30.816406 24.058594 30.886719 C 24.128906 30.960938 24.164062 31.046875 24.164062 31.148438 L 24.164062 32.191406 C 24.164062 32.292969 24.128906 32.378906 24.058594 32.453125 C 23.984375 32.523438 23.898438 32.558594 23.796875 32.558594 Z M 23.796875 32.558594 " fill-opacity="1" fill-rule="nonzero"/><path fill="#ffffff" d="M 25.496094 32.558594 C 25.394531 32.558594 25.308594 32.523438 25.234375 32.453125 C 25.164062 32.378906 25.128906 32.292969 25.128906 32.191406 L 25.128906 31.148438 C 25.128906 31.046875 25.164062 30.960938 25.234375 30.886719 C 25.308594 30.816406 25.394531 30.777344 25.496094 30.777344 C 25.601562 30.777344 25.6875 30.816406 25.757812 30.886719 C 25.832031 30.960938 25.867188 31.046875 25.867188 31.148438 L 25.867188 32.191406 C 25.867188 32.292969 25.832031 32.378906 25.757812 32.453125 C 25.6875 32.523438 25.601562 32.558594 25.496094 32.558594 Z M 25.496094 32.558594 " fill-opacity="1" fill-rule="nonzero"/><path fill="#ffffff" d="M 27.203125 32.558594 C 27.101562 32.558594 27.011719 32.523438 26.941406 32.453125 C 26.867188 32.378906 26.832031 32.292969 26.832031 32.191406 L 26.832031 31.148438 C 26.832031 31.046875 26.867188 30.960938 26.941406 30.886719 C 27.011719 30.816406 27.101562 30.777344 27.203125 30.777344 C 27.304688 30.777344 27.390625 30.816406 27.464844 30.886719 C 27.535156 30.960938 27.574219 31.046875 27.574219 31.148438 L 27.574219 32.191406 C 27.574219 32.292969 27.535156 32.378906 27.464844 32.453125 C 27.390625 32.523438 27.304688 32.558594 27.203125 32.558594 Z M 27.203125 32.558594 " fill-opacity="1" fill-rule="nonzero"/><path fill="#ffffff" d="M 28.890625 32.558594 C 28.789062 32.558594 28.699219 32.523438 28.628906 32.449219 C 28.558594 32.378906 28.519531 32.292969 28.519531 32.191406 L 28.519531 31.148438 C 28.515625 31.042969 28.546875 30.949219 28.621094 30.871094 C 28.695312 30.792969 28.785156 30.753906 28.890625 30.753906 C 28.996094 30.753906 29.085938 30.792969 29.160156 30.871094 C 29.234375 30.949219 29.265625 31.042969 29.257812 31.148438 L 29.257812 32.191406 C 29.257812 32.292969 29.222656 32.378906 29.152344 32.453125 C 29.078125 32.523438 28.992188 32.558594 28.890625 32.558594 Z M 28.890625 32.558594 " fill-opacity="1" fill-rule="nonzero"/><path fill="#ffffff" d="M 30.585938 32.558594 C 30.484375 32.558594 30.398438 32.523438 30.324219 32.453125 C 30.253906 32.378906 30.21875 32.292969 30.21875 32.191406 L 30.21875 31.148438 C 30.210938 31.042969 30.242188 30.949219 30.316406 30.871094 C 30.390625 30.792969 30.480469 30.753906 30.585938 30.753906 C 30.695312 30.753906 30.785156 30.792969 30.855469 30.871094 C 30.929688 30.949219 30.964844 31.042969 30.957031 31.148438 L 30.957031 32.191406 C 30.957031 32.292969 30.921875 32.378906 30.847656 32.453125 C 30.777344 32.523438 30.6875 32.558594 30.585938 32.558594 Z M 30.585938 32.558594 " fill-opacity="1" fill-rule="nonzero"/><path fill="#ffffff" d="M 32.28125 32.558594 C 32.179688 32.558594 32.09375 32.523438 32.023438 32.453125 C 31.949219 32.378906 31.914062 32.292969 31.914062 32.191406 L 31.914062 31.148438 C 31.914062 31.046875 31.949219 30.960938 32.023438 30.886719 C 32.09375 30.816406 32.179688 30.777344 32.28125 30.777344 C 32.386719 30.777344 32.472656 30.816406 32.542969 30.886719 C 32.617188 30.960938 32.652344 31.046875 32.652344 31.148438 L 32.652344 32.191406 C 32.652344 32.292969 32.617188 32.378906 32.542969 32.453125 C 32.472656 32.523438 32.386719 32.558594 32.28125 32.558594 Z M 32.28125 32.558594 " fill-opacity="1" fill-rule="nonzero"/><g clip-path="url(#9cbc093ae9)"><path fill="#ffffff" d="M 17.683594 14.003906 C 17.582031 14.003906 17.492188 13.96875 17.417969 13.898438 C 17.34375 13.824219 17.308594 13.738281 17.308594 13.632812 L 17.308594 8.363281 L 13.984375 5.03125 C 13.910156 4.957031 13.875 4.871094 13.875 4.769531 L 13.875 0.519531 C 13.871094 0.410156 13.902344 0.320312 13.976562 0.242188 C 14.046875 0.164062 14.136719 0.125 14.246094 0.125 C 14.351562 0.125 14.441406 0.164062 14.515625 0.242188 C 14.589844 0.320312 14.621094 0.410156 14.613281 0.519531 L 14.613281 4.617188 L 17.945312 7.945312 C 18.015625 8.019531 18.054688 8.105469 18.054688 8.210938 L 18.054688 13.632812 C 18.054688 13.734375 18.015625 13.824219 17.945312 13.894531 C 17.871094 13.96875 17.785156 14.003906 17.683594 14.003906 Z M 17.683594 14.003906 " fill-opacity="1" fill-rule="nonzero"/></g><path fill="#ffffff" d="M 20.84375 14.003906 C 20.742188 14.003906 20.65625 13.96875 20.582031 13.894531 C 20.511719 13.824219 20.476562 13.734375 20.476562 13.632812 L 20.476562 9.519531 C 20.476562 9.417969 20.511719 9.328125 20.585938 9.257812 L 22.882812 6.960938 L 22.882812 3.394531 C 22.875 3.285156 22.910156 3.195312 22.980469 3.117188 C 23.054688 3.039062 23.144531 3 23.25 3 C 23.359375 3 23.449219 3.039062 23.523438 3.117188 C 23.59375 3.195312 23.628906 3.285156 23.621094 3.394531 L 23.621094 7.125 C 23.621094 7.226562 23.585938 7.3125 23.511719 7.386719 L 21.214844 9.671875 L 21.214844 13.632812 C 21.214844 13.734375 21.179688 13.824219 21.105469 13.894531 C 21.035156 13.96875 20.945312 14.003906 20.84375 14.003906 Z M 20.84375 14.003906 " fill-opacity="1" fill-rule="nonzero"/><g clip-path="url(#a73aa681d2)"><path fill="#ffffff" d="M 28.339844 14.003906 C 28.234375 14.003906 28.148438 13.96875 28.078125 13.894531 L 25.355469 11.179688 C 25.285156 11.109375 25.246094 11.019531 25.246094 10.917969 L 25.246094 8.210938 C 25.246094 8.105469 25.285156 8.019531 25.355469 7.945312 L 29.320312 3.984375 L 29.320312 0.519531 C 29.3125 0.410156 29.34375 0.320312 29.417969 0.242188 C 29.492188 0.164062 29.582031 0.125 29.6875 0.125 C 29.796875 0.125 29.886719 0.164062 29.957031 0.242188 C 30.03125 0.320312 30.066406 0.410156 30.058594 0.519531 L 30.058594 4.136719 C 30.058594 4.238281 30.023438 4.328125 29.949219 4.398438 L 25.988281 8.363281 L 25.988281 10.769531 L 28.589844 13.363281 C 28.664062 13.4375 28.699219 13.523438 28.699219 13.625 C 28.699219 13.726562 28.664062 13.816406 28.589844 13.886719 C 28.523438 13.960938 28.4375 14 28.339844 14.003906 Z M 28.339844 14.003906 " fill-opacity="1" fill-rule="nonzero"/></g><path fill="#ffffff" d="M 31.023438 14.003906 C 30.921875 14.003906 30.835938 13.96875 30.761719 13.894531 C 30.691406 13.824219 30.65625 13.734375 30.65625 13.632812 L 30.65625 10.257812 C 30.65625 10.15625 30.691406 10.070312 30.761719 10 L 32.988281 7.773438 L 32.988281 5.375 C 32.988281 5.269531 33.023438 5.183594 33.09375 5.113281 C 33.167969 5.039062 33.253906 5.003906 33.355469 5.003906 C 33.460938 5.003906 33.546875 5.039062 33.617188 5.113281 C 33.691406 5.183594 33.726562 5.269531 33.726562 5.375 L 33.726562 7.933594 C 33.726562 8.035156 33.691406 8.125 33.617188 8.195312 L 31.394531 10.410156 L 31.394531 13.632812 C 31.394531 13.734375 31.355469 13.824219 31.285156 13.894531 C 31.214844 13.964844 31.125 14.003906 31.023438 14.003906 Z M 31.023438 14.003906 " fill-opacity="1" fill-rule="nonzero"/><g clip-path="url(#d5d3ba6ecc)"><path fill="#ffffff" d="M 33.355469 47.527344 C 33.253906 47.527344 33.167969 47.488281 33.09375 47.417969 C 33.023438 47.34375 32.988281 47.257812 32.988281 47.15625 L 32.988281 43.058594 L 29.65625 39.730469 C 29.585938 39.65625 29.546875 39.570312 29.546875 39.46875 L 29.546875 34.039062 C 29.546875 33.9375 29.585938 33.851562 29.65625 33.777344 C 29.730469 33.707031 29.816406 33.671875 29.917969 33.671875 C 30.019531 33.671875 30.105469 33.707031 30.179688 33.777344 C 30.25 33.851562 30.289062 33.9375 30.289062 34.039062 L 30.289062 39.3125 L 33.617188 42.648438 C 33.691406 42.722656 33.726562 42.808594 33.726562 42.910156 L 33.726562 47.164062 C 33.726562 47.261719 33.6875 47.347656 33.617188 47.421875 C 33.542969 47.492188 33.457031 47.527344 33.355469 47.527344 Z M 33.355469 47.527344 " fill-opacity="1" fill-rule="nonzero"/></g><path fill="#ffffff" d="M 24.351562 44.660156 C 24.25 44.660156 24.160156 44.625 24.089844 44.554688 C 24.015625 44.480469 23.980469 44.394531 23.980469 44.292969 L 23.980469 40.558594 C 23.980469 40.457031 24.015625 40.371094 24.089844 40.300781 L 26.390625 38.003906 L 26.390625 34.039062 C 26.382812 33.933594 26.417969 33.839844 26.492188 33.761719 C 26.5625 33.683594 26.652344 33.644531 26.761719 33.644531 C 26.867188 33.644531 26.957031 33.683594 27.03125 33.761719 C 27.105469 33.839844 27.136719 33.933594 27.128906 34.039062 L 27.128906 38.15625 C 27.128906 38.257812 27.09375 38.34375 27.023438 38.414062 L 24.722656 40.714844 L 24.722656 44.285156 C 24.722656 44.390625 24.6875 44.476562 24.617188 44.550781 C 24.542969 44.625 24.453125 44.664062 24.351562 44.660156 Z M 24.351562 44.660156 " fill-opacity="1" fill-rule="nonzero"/><g clip-path="url(#e2212a3349)"><path fill="#ffffff" d="M 17.914062 47.527344 C 17.8125 47.527344 17.722656 47.488281 17.652344 47.417969 C 17.582031 47.34375 17.542969 47.257812 17.542969 47.15625 L 17.542969 43.535156 C 17.542969 43.433594 17.578125 43.347656 17.652344 43.277344 L 21.613281 39.3125 L 21.613281 36.90625 L 19.011719 34.300781 C 18.945312 34.230469 18.914062 34.144531 18.914062 34.042969 C 18.917969 33.945312 18.953125 33.863281 19.023438 33.792969 C 19.09375 33.722656 19.175781 33.6875 19.277344 33.683594 C 19.375 33.683594 19.460938 33.714844 19.53125 33.78125 L 22.246094 36.484375 C 22.316406 36.558594 22.355469 36.644531 22.355469 36.746094 L 22.355469 39.457031 C 22.355469 39.5625 22.316406 39.648438 22.246094 39.71875 L 18.28125 43.691406 L 18.28125 47.15625 C 18.28125 47.257812 18.246094 47.34375 18.171875 47.417969 C 18.101562 47.488281 18.015625 47.523438 17.914062 47.527344 Z M 17.914062 47.527344 " fill-opacity="1" fill-rule="nonzero"/></g><path fill="#ffffff" d="M 14.246094 42.671875 C 14.144531 42.671875 14.054688 42.632812 13.984375 42.5625 C 13.914062 42.488281 13.875 42.402344 13.875 42.300781 L 13.875 39.746094 C 13.875 39.644531 13.910156 39.558594 13.984375 39.488281 L 16.207031 37.261719 L 16.207031 34.039062 C 16.203125 33.933594 16.234375 33.839844 16.308594 33.761719 C 16.382812 33.683594 16.472656 33.644531 16.578125 33.644531 C 16.683594 33.644531 16.773438 33.683594 16.847656 33.761719 C 16.921875 33.839844 16.953125 33.933594 16.945312 34.039062 L 16.945312 37.414062 C 16.945312 37.515625 16.910156 37.605469 16.839844 37.675781 L 14.613281 39.898438 L 14.613281 42.300781 C 14.613281 42.402344 14.578125 42.492188 14.507812 42.5625 C 14.433594 42.632812 14.347656 42.671875 14.246094 42.671875 Z M 14.246094 42.671875 " fill-opacity="1" fill-rule="nonzero"/><g clip-path="url(#4685340fcd)"><path fill="#ffffff" d="M 39.429688 18.089844 L 34.003906 18.089844 C 33.902344 18.089844 33.816406 18.054688 33.742188 17.980469 C 33.671875 17.910156 33.632812 17.820312 33.632812 17.71875 C 33.632812 17.617188 33.671875 17.53125 33.742188 17.457031 C 33.816406 17.386719 33.902344 17.351562 34.003906 17.351562 L 39.277344 17.351562 L 42.613281 14.019531 C 42.6875 13.949219 42.773438 13.914062 42.875 13.914062 L 47.125 13.914062 C 47.234375 13.90625 47.324219 13.9375 47.402344 14.011719 C 47.480469 14.085938 47.519531 14.175781 47.519531 14.28125 C 47.519531 14.386719 47.480469 14.480469 47.402344 14.550781 C 47.324219 14.625 47.234375 14.65625 47.125 14.652344 L 43.019531 14.652344 L 39.691406 17.980469 C 39.621094 18.054688 39.53125 18.089844 39.429688 18.089844 Z M 39.429688 18.089844 " fill-opacity="1" fill-rule="nonzero"/></g><path fill="#ffffff" d="M 44.253906 23.65625 L 40.523438 23.65625 C 40.421875 23.65625 40.332031 23.621094 40.261719 23.546875 L 37.960938 21.25 L 34.003906 21.25 C 33.898438 21.257812 33.804688 21.222656 33.726562 21.152344 C 33.648438 21.078125 33.609375 20.988281 33.609375 20.878906 C 33.609375 20.773438 33.648438 20.683594 33.726562 20.609375 C 33.804688 20.539062 33.898438 20.503906 34.003906 20.511719 L 38.121094 20.511719 C 38.222656 20.511719 38.308594 20.546875 38.382812 20.617188 L 40.679688 22.917969 L 44.25 22.917969 C 44.355469 22.910156 44.449219 22.945312 44.527344 23.019531 C 44.605469 23.089844 44.644531 23.179688 44.644531 23.289062 C 44.644531 23.394531 44.605469 23.484375 44.527344 23.558594 C 44.449219 23.632812 44.355469 23.664062 44.25 23.65625 Z M 44.253906 23.65625 " fill-opacity="1" fill-rule="nonzero"/><g clip-path="url(#56ac56678a)"><path fill="#ffffff" d="M 47.121094 30.09375 L 43.5 30.09375 C 43.398438 30.09375 43.3125 30.058594 43.238281 29.984375 L 39.277344 26.023438 L 36.867188 26.023438 L 34.265625 28.628906 C 34.191406 28.691406 34.105469 28.726562 34.007812 28.722656 C 33.910156 28.71875 33.824219 28.683594 33.757812 28.613281 C 33.6875 28.542969 33.652344 28.460938 33.648438 28.363281 C 33.644531 28.265625 33.675781 28.179688 33.742188 28.105469 L 36.449219 25.394531 C 36.519531 25.320312 36.609375 25.285156 36.710938 25.285156 L 39.421875 25.285156 C 39.523438 25.285156 39.613281 25.320312 39.683594 25.394531 L 43.652344 29.347656 L 47.121094 29.347656 C 47.222656 29.347656 47.308594 29.382812 47.382812 29.457031 C 47.453125 29.527344 47.488281 29.617188 47.488281 29.71875 C 47.488281 29.820312 47.453125 29.90625 47.382812 29.980469 C 47.308594 30.050781 47.222656 30.085938 47.121094 30.085938 Z M 47.121094 30.09375 " fill-opacity="1" fill-rule="nonzero"/></g><path fill="#ffffff" d="M 42.265625 33.761719 L 39.710938 33.761719 C 39.609375 33.761719 39.523438 33.726562 39.449219 33.65625 L 37.226562 31.429688 L 34.003906 31.429688 C 33.902344 31.429688 33.816406 31.394531 33.742188 31.320312 C 33.671875 31.25 33.632812 31.160156 33.632812 31.058594 C 33.632812 30.957031 33.671875 30.871094 33.742188 30.796875 C 33.816406 30.726562 33.902344 30.6875 34.003906 30.6875 L 37.378906 30.6875 C 37.480469 30.691406 37.566406 30.726562 37.640625 30.796875 L 39.867188 33.023438 L 42.265625 33.023438 C 42.371094 33.015625 42.464844 33.050781 42.542969 33.121094 C 42.621094 33.195312 42.660156 33.285156 42.660156 33.394531 C 42.660156 33.5 42.621094 33.589844 42.542969 33.664062 C 42.464844 33.734375 42.371094 33.769531 42.265625 33.761719 Z M 42.265625 33.761719 " fill-opacity="1" fill-rule="nonzero"/><path fill="#ffffff" d="M 4.734375 33.761719 L 0.480469 33.761719 C 0.375 33.769531 0.28125 33.734375 0.203125 33.664062 C 0.125 33.589844 0.0859375 33.5 0.0859375 33.394531 C 0.0859375 33.285156 0.125 33.195312 0.203125 33.121094 C 0.28125 33.050781 0.375 33.015625 0.480469 33.023438 L 4.582031 33.023438 L 7.910156 29.691406 C 7.984375 29.621094 8.070312 29.585938 8.171875 29.585938 L 13.597656 29.585938 C 13.699219 29.585938 13.785156 29.621094 13.859375 29.691406 C 13.929688 29.765625 13.96875 29.851562 13.96875 29.953125 C 13.96875 30.054688 13.929688 30.144531 13.859375 30.214844 C 13.785156 30.289062 13.699219 30.324219 13.597656 30.324219 L 8.324219 30.324219 L 4.996094 33.65625 C 4.921875 33.726562 4.835938 33.761719 4.734375 33.761719 Z M 4.734375 33.761719 " fill-opacity="1" fill-rule="nonzero"/><path fill="#ffffff" d="M 13.597656 27.164062 L 9.484375 27.164062 C 9.382812 27.164062 9.292969 27.128906 9.21875 27.054688 L 6.925781 24.753906 L 3.355469 24.753906 C 3.25 24.761719 3.15625 24.730469 3.078125 24.65625 C 3 24.582031 2.960938 24.492188 2.960938 24.386719 C 2.960938 24.28125 3 24.1875 3.078125 24.117188 C 3.15625 24.042969 3.25 24.011719 3.355469 24.015625 L 7.085938 24.015625 C 7.1875 24.015625 7.277344 24.054688 7.347656 24.125 L 9.636719 26.429688 L 13.597656 26.429688 C 13.703125 26.421875 13.796875 26.453125 13.875 26.527344 C 13.953125 26.601562 13.992188 26.691406 13.992188 26.796875 C 13.992188 26.902344 13.953125 26.992188 13.875 27.066406 C 13.796875 27.140625 13.703125 27.171875 13.597656 27.164062 Z M 13.597656 27.164062 " fill-opacity="1" fill-rule="nonzero"/><path fill="#ffffff" d="M 10.886719 22.390625 L 8.171875 22.390625 C 8.070312 22.390625 7.984375 22.355469 7.910156 22.28125 L 3.949219 18.316406 L 0.480469 18.316406 C 0.378906 18.316406 0.292969 18.28125 0.21875 18.207031 C 0.148438 18.136719 0.113281 18.050781 0.113281 17.945312 C 0.113281 17.84375 0.148438 17.757812 0.21875 17.683594 C 0.292969 17.613281 0.378906 17.578125 0.480469 17.578125 L 4.101562 17.578125 C 4.203125 17.578125 4.289062 17.613281 4.363281 17.6875 L 8.324219 21.648438 L 10.734375 21.648438 L 13.328125 19.042969 C 13.402344 18.976562 13.488281 18.945312 13.585938 18.949219 C 13.683594 18.953125 13.765625 18.988281 13.835938 19.058594 C 13.90625 19.125 13.941406 19.210938 13.945312 19.308594 C 13.949219 19.40625 13.917969 19.492188 13.851562 19.566406 L 11.144531 22.28125 C 11.070312 22.355469 10.984375 22.390625 10.886719 22.390625 Z M 10.886719 22.390625 " fill-opacity="1" fill-rule="nonzero"/><path fill="#ffffff" d="M 13.597656 16.984375 L 10.222656 16.984375 C 10.121094 16.984375 10.035156 16.949219 9.960938 16.875 L 7.734375 14.652344 L 5.335938 14.652344 C 5.230469 14.65625 5.136719 14.625 5.058594 14.550781 C 4.980469 14.480469 4.941406 14.386719 4.941406 14.28125 C 4.941406 14.175781 4.980469 14.085938 5.058594 14.011719 C 5.136719 13.9375 5.230469 13.90625 5.335938 13.914062 L 7.898438 13.914062 C 8 13.914062 8.085938 13.949219 8.160156 14.019531 L 10.375 16.246094 L 13.597656 16.246094 C 13.703125 16.238281 13.796875 16.269531 13.875 16.34375 C 13.953125 16.417969 13.992188 16.507812 13.992188 16.613281 C 13.992188 16.722656 13.953125 16.8125 13.875 16.882812 C 13.796875 16.957031 13.703125 16.992188 13.597656 16.984375 Z M 13.597656 16.984375 " fill-opacity="1" fill-rule="nonzero"/><g fill="#ffffff" fill-opacity="1"><g transform="translate(49.453146, 28.49364)"><g><path d="M 8.640625 0 L 5.640625 -5.453125 L 4.796875 -5.453125 L 4.796875 0 L 1.28125 0 L 1.28125 -14.4375 L 7.171875 -14.4375 C 8.316406 -14.4375 9.285156 -14.238281 10.078125 -13.84375 C 10.878906 -13.445312 11.476562 -12.898438 11.875 -12.203125 C 12.28125 -11.515625 12.484375 -10.742188 12.484375 -9.890625 C 12.484375 -8.929688 12.210938 -8.070312 11.671875 -7.3125 C 11.128906 -6.5625 10.332031 -6.03125 9.28125 -5.71875 L 12.609375 0 Z M 4.796875 -7.9375 L 6.96875 -7.9375 C 7.613281 -7.9375 8.097656 -8.09375 8.421875 -8.40625 C 8.742188 -8.726562 8.90625 -9.175781 8.90625 -9.75 C 8.90625 -10.289062 8.742188 -10.71875 8.421875 -11.03125 C 8.097656 -11.351562 7.613281 -11.515625 6.96875 -11.515625 L 4.796875 -11.515625 Z M 4.796875 -7.9375 "/></g></g></g><g fill="#ffffff" fill-opacity="1"><g transform="translate(61.254549, 28.49364)"><g><path d="M 13 -11.46875 L 5.796875 5.453125 L 2.015625 5.453125 L 4.640625 -0.390625 L -0.015625 -11.46875 L 3.90625 -11.46875 L 6.5625 -4.296875 L 9.1875 -11.46875 Z M 13 -11.46875 "/></g></g></g><g fill="#ffffff" fill-opacity="1"><g transform="translate(72.644722, 28.49364)"><g><path d="M 7.671875 -2.984375 L 7.671875 0 L 5.875 0 C 4.601562 0 3.609375 -0.3125 2.890625 -0.9375 C 2.179688 -1.5625 1.828125 -2.578125 1.828125 -3.984375 L 1.828125 -8.546875 L 0.4375 -8.546875 L 0.4375 -11.46875 L 1.828125 -11.46875 L 1.828125 -14.265625 L 5.34375 -14.265625 L 5.34375 -11.46875 L 7.65625 -11.46875 L 7.65625 -8.546875 L 5.34375 -8.546875 L 5.34375 -3.953125 C 5.34375 -3.609375 5.425781 -3.359375 5.59375 -3.203125 C 5.757812 -3.054688 6.035156 -2.984375 6.421875 -2.984375 Z M 7.671875 -2.984375 "/></g></g></g><g fill="#ffffff" fill-opacity="1"><g transform="translate(79.388045, 28.49364)"><g><path d="M 8.328125 -11.59375 C 9.640625 -11.59375 10.691406 -11.15625 11.484375 -10.28125 C 12.285156 -9.414062 12.6875 -8.222656 12.6875 -6.703125 L 12.6875 0 L 9.1875 0 L 9.1875 -6.234375 C 9.1875 -6.992188 8.988281 -7.585938 8.59375 -8.015625 C 8.195312 -8.441406 7.660156 -8.65625 6.984375 -8.65625 C 6.316406 -8.65625 5.785156 -8.441406 5.390625 -8.015625 C 4.992188 -7.585938 4.796875 -6.992188 4.796875 -6.234375 L 4.796875 0 L 1.28125 0 L 1.28125 -15.21875 L 4.796875 -15.21875 L 4.796875 -9.9375 C 5.148438 -10.4375 5.632812 -10.835938 6.25 -11.140625 C 6.863281 -11.441406 7.554688 -11.59375 8.328125 -11.59375 Z M 8.328125 -11.59375 "/></g></g></g><g fill="#ffffff" fill-opacity="1"><g transform="translate(91.641794, 28.49364)"><g><path d="M 0.578125 -5.75 C 0.578125 -6.9375 0.796875 -7.972656 1.234375 -8.859375 C 1.679688 -9.753906 2.289062 -10.441406 3.0625 -10.921875 C 3.832031 -11.398438 4.691406 -11.640625 5.640625 -11.640625 C 6.441406 -11.640625 7.144531 -11.472656 7.75 -11.140625 C 8.363281 -10.816406 8.835938 -10.382812 9.171875 -9.84375 L 9.171875 -11.46875 L 12.6875 -11.46875 L 12.6875 0 L 9.171875 0 L 9.171875 -1.625 C 8.828125 -1.09375 8.347656 -0.660156 7.734375 -0.328125 C 7.128906 0.00390625 6.421875 0.171875 5.609375 0.171875 C 4.679688 0.171875 3.832031 -0.0703125 3.0625 -0.5625 C 2.289062 -1.050781 1.679688 -1.742188 1.234375 -2.640625 C 0.796875 -3.535156 0.578125 -4.570312 0.578125 -5.75 Z M 9.171875 -5.734375 C 9.171875 -6.609375 8.925781 -7.300781 8.4375 -7.8125 C 7.945312 -8.320312 7.351562 -8.578125 6.65625 -8.578125 C 5.957031 -8.578125 5.363281 -8.328125 4.875 -7.828125 C 4.394531 -7.328125 4.15625 -6.632812 4.15625 -5.75 C 4.15625 -4.875 4.394531 -4.179688 4.875 -3.671875 C 5.363281 -3.160156 5.957031 -2.90625 6.65625 -2.90625 C 7.351562 -2.90625 7.945312 -3.15625 8.4375 -3.65625 C 8.925781 -4.164062 9.171875 -4.859375 9.171875 -5.734375 Z M 9.171875 -5.734375 "/></g></g></g><g fill="#ffffff" fill-opacity="1"><g transform="translate(103.998351, 28.49364)"><g><path d="M 15.921875 -11.59375 C 17.335938 -11.59375 18.46875 -11.160156 19.3125 -10.296875 C 20.15625 -9.429688 20.578125 -8.234375 20.578125 -6.703125 L 20.578125 0 L 17.09375 0 L 17.09375 -6.234375 C 17.09375 -6.972656 16.894531 -7.539062 16.5 -7.9375 C 16.113281 -8.34375 15.578125 -8.546875 14.890625 -8.546875 C 14.203125 -8.546875 13.660156 -8.34375 13.265625 -7.9375 C 12.878906 -7.539062 12.6875 -6.972656 12.6875 -6.234375 L 12.6875 0 L 9.1875 0 L 9.1875 -6.234375 C 9.1875 -6.972656 8.988281 -7.539062 8.59375 -7.9375 C 8.207031 -8.34375 7.671875 -8.546875 6.984375 -8.546875 C 6.304688 -8.546875 5.769531 -8.34375 5.375 -7.9375 C 4.988281 -7.539062 4.796875 -6.972656 4.796875 -6.234375 L 4.796875 0 L 1.28125 0 L 1.28125 -11.46875 L 4.796875 -11.46875 L 4.796875 -10.03125 C 5.148438 -10.507812 5.613281 -10.890625 6.1875 -11.171875 C 6.757812 -11.453125 7.410156 -11.59375 8.140625 -11.59375 C 9.003906 -11.59375 9.773438 -11.40625 10.453125 -11.03125 C 11.128906 -10.664062 11.660156 -10.140625 12.046875 -9.453125 C 12.441406 -10.085938 12.984375 -10.601562 13.671875 -11 C 14.359375 -11.394531 15.109375 -11.59375 15.921875 -11.59375 Z M 15.921875 -11.59375 "/></g></g></g><g fill="#ffffff" fill-opacity="1"><g transform="translate(124.168539, 28.49364)"><g/></g></g><g fill="#ffffff" fill-opacity="1"><g transform="translate(128.550146, 30.247439)"><g><path d="M 7.609375 1.71875 C 5.828125 1.71875 4.316406 1.367188 3.078125 0.671875 C 1.835938 -0.0234375 0.984375 -1.132812 0.515625 -2.65625 C 0.046875 -4.175781 0.0820312 -6.113281 0.625 -8.46875 C 1.15625 -10.75 1.976562 -12.703125 3.09375 -14.328125 C 4.21875 -15.960938 5.585938 -17.210938 7.203125 -18.078125 C 8.816406 -18.941406 10.609375 -19.375 12.578125 -19.375 C 15.359375 -19.375 17.28125 -18.519531 18.34375 -16.8125 C 19.414062 -15.101562 19.59375 -12.707031 18.875 -9.625 C 18.382812 -7.457031 17.671875 -5.8125 16.734375 -4.6875 C 15.804688 -3.570312 14.617188 -3.015625 13.171875 -3.015625 C 12.171875 -3.015625 11.445312 -3.210938 11 -3.609375 C 10.5625 -4.015625 10.296875 -4.597656 10.203125 -5.359375 C 9.898438 -4.660156 9.519531 -4.109375 9.0625 -3.703125 C 8.613281 -3.304688 8.109375 -3.109375 7.546875 -3.109375 C 6.515625 -3.109375 5.828125 -3.625 5.484375 -4.65625 C 5.140625 -5.695312 5.140625 -6.960938 5.484375 -8.453125 C 5.890625 -10.171875 6.457031 -11.550781 7.1875 -12.59375 C 7.914062 -13.644531 8.835938 -14.171875 9.953125 -14.171875 C 10.453125 -14.171875 10.84375 -14.039062 11.125 -13.78125 C 11.40625 -13.519531 11.632812 -13.140625 11.8125 -12.640625 L 12.578125 -14.078125 L 15.046875 -14.078125 L 13.4375 -7.078125 C 13.207031 -6.035156 13.410156 -5.515625 14.046875 -5.515625 C 14.503906 -5.515625 14.894531 -5.835938 15.21875 -6.484375 C 15.539062 -7.140625 15.863281 -8.164062 16.1875 -9.5625 C 16.726562 -11.914062 16.703125 -13.703125 16.109375 -14.921875 C 15.523438 -16.140625 14.226562 -16.75 12.21875 -16.75 C 10.082031 -16.75 8.289062 -16.035156 6.84375 -14.609375 C 5.40625 -13.191406 4.375 -11.140625 3.75 -8.453125 C 3.175781 -5.972656 3.304688 -4.082031 4.140625 -2.78125 C 4.984375 -1.488281 6.394531 -0.84375 8.375 -0.84375 C 9.007812 -0.84375 9.992188 -0.921875 11.328125 -1.078125 L 11.078125 1.390625 C 9.722656 1.609375 8.566406 1.71875 7.609375 1.71875 Z M 9.171875 -5.8125 C 9.484375 -5.8125 9.738281 -5.96875 9.9375 -6.28125 C 10.144531 -6.59375 10.300781 -6.976562 10.40625 -7.4375 L 11.390625 -11.703125 C 10.929688 -11.703125 10.554688 -11.609375 10.265625 -11.421875 C 9.972656 -11.242188 9.71875 -10.929688 9.5 -10.484375 C 9.28125 -10.035156 9.078125 -9.382812 8.890625 -8.53125 C 8.710938 -7.769531 8.632812 -7.125 8.65625 -6.59375 C 8.675781 -6.070312 8.847656 -5.8125 9.171875 -5.8125 Z M 9.171875 -5.8125 "/></g></g></g><g fill="#ffffff" fill-opacity="1"><g transform="translate(146.108118, 30.247439)"><g><path d="M 3.078125 0.171875 C 1.671875 0.171875 0.648438 -0.265625 0.015625 -1.140625 C -0.617188 -2.015625 -0.757812 -3.222656 -0.40625 -4.765625 L 1.625 -13.609375 C 2.070312 -15.515625 2.785156 -16.953125 3.765625 -17.921875 C 4.753906 -18.890625 6.054688 -19.375 7.671875 -19.375 C 9.085938 -19.375 10.140625 -18.984375 10.828125 -18.203125 C 11.515625 -17.429688 11.6875 -16.316406 11.34375 -14.859375 L 10.578125 -11.546875 L 6.765625 -11.546875 L 7.4375 -14.390625 C 7.550781 -14.941406 7.566406 -15.320312 7.484375 -15.53125 C 7.398438 -15.738281 7.195312 -15.84375 6.875 -15.84375 C 6.53125 -15.84375 6.265625 -15.722656 6.078125 -15.484375 C 5.890625 -15.242188 5.742188 -14.894531 5.640625 -14.4375 L 3.40625 -4.796875 C 3.300781 -4.296875 3.296875 -3.925781 3.390625 -3.6875 C 3.484375 -3.457031 3.675781 -3.34375 3.96875 -3.34375 C 4.5625 -3.34375 4.972656 -3.828125 5.203125 -4.796875 L 6 -8.265625 L 9.875 -8.265625 L 9.046875 -4.640625 C 8.296875 -1.429688 6.304688 0.171875 3.078125 0.171875 Z M 3.078125 0.171875 "/></g></g></g><g fill="#ffffff" fill-opacity="1"><g transform="translate(154.953707, 30.247439)"><g><path d="M 3.1875 0.171875 C 1.632812 0.171875 0.566406 -0.296875 -0.015625 -1.234375 C -0.609375 -2.179688 -0.703125 -3.515625 -0.296875 -5.234375 L 1.796875 -14.359375 C 2.191406 -16.015625 2.882812 -17.265625 3.875 -18.109375 C 4.875 -18.953125 6.148438 -19.375 7.703125 -19.375 C 9.253906 -19.375 10.332031 -18.953125 10.9375 -18.109375 C 11.550781 -17.265625 11.664062 -16.015625 11.28125 -14.359375 L 9.171875 -5.234375 C 8.773438 -3.503906 8.066406 -2.171875 7.046875 -1.234375 C 6.023438 -0.296875 4.738281 0.171875 3.1875 0.171875 Z M 4 -3.34375 C 4.332031 -3.34375 4.597656 -3.492188 4.796875 -3.796875 C 4.992188 -4.097656 5.148438 -4.515625 5.265625 -5.046875 L 7.4375 -14.4375 C 7.519531 -14.851562 7.539062 -15.191406 7.5 -15.453125 C 7.457031 -15.710938 7.265625 -15.84375 6.921875 -15.84375 C 6.273438 -15.84375 5.84375 -15.359375 5.625 -14.390625 L 3.453125 -5.03125 C 3.316406 -4.476562 3.28125 -4.054688 3.34375 -3.765625 C 3.414062 -3.484375 3.632812 -3.34375 4 -3.34375 Z M 4 -3.34375 "/></g></g></g><g fill="#ffffff" fill-opacity="1"><g transform="translate(164.067363, 30.247439)"><g><path d="M 3.078125 -19.1875 L 8.375 -19.1875 C 9.738281 -19.1875 10.675781 -18.804688 11.1875 -18.046875 C 11.707031 -17.296875 11.804688 -16.175781 11.484375 -14.6875 L 9.4375 -5.703125 C 9.007812 -3.804688 8.351562 -2.378906 7.46875 -1.421875 C 6.582031 -0.472656 5.363281 0 3.8125 0 L -1.34375 0 Z M 3.96875 -3.390625 C 4.664062 -3.390625 5.097656 -3.734375 5.265625 -4.421875 L 7.546875 -14.328125 C 7.648438 -14.753906 7.691406 -15.078125 7.671875 -15.296875 C 7.648438 -15.515625 7.5625 -15.660156 7.40625 -15.734375 C 7.25 -15.804688 6.984375 -15.84375 6.609375 -15.84375 L 6.1875 -15.84375 L 3.296875 -3.390625 Z M 3.96875 -3.390625 "/></g></g></g><g fill="#ffffff" fill-opacity="1"><g transform="translate(173.337401, 30.247439)"><g><path d="M -1.34375 0 L 3.078125 -19.1875 L 10.765625 -19.1875 L 9.90625 -15.484375 L 6.140625 -15.484375 L 5.265625 -11.75 L 8.890625 -11.75 L 8.0625 -8.140625 L 4.4375 -8.140625 L 3.40625 -3.734375 L 7.4375 -3.734375 L 6.578125 0 Z M -1.34375 0 "/></g></g></g></svg>